<svg width="18" height="18" viewBox="0 0 18 18" fill="none" xmlns="http://www.w3.org/2000/svg">
    <g clip-path="url(#d4z6himbra)">
        <path d="M13.5 6h-.75V4.5C12.75 2.43 11.07.75 9 .75 6.93.75 5.25 2.43 5.25 4.5V6H4.5C3.675 6 3 6.675 3 7.5V15c0 .825.675 1.5 1.5 1.5h9c.825 0 1.5-.675 1.5-1.5V7.5c0-.825-.675-1.5-1.5-1.5zM9 12.75c-.825 0-1.5-.675-1.5-1.5s.675-1.5 1.5-1.5 1.5.675 1.5 1.5-.675 1.5-1.5 1.5zM6.75 6V4.5A2.247 2.247 0 0 1 9 2.25a2.247 2.247 0 0 1 2.25 2.25V6h-4.5z" fill="#000" fill-opacity=".6"/>
    </g>
    <defs>
        <clipPath id="d4z6himbra">
            <path fill="#fff" d="M0 0h18v18H0z"/>
        </clipPath>
    </defs>
</svg>
