<svg width="300" height="120" viewBox="0 0 300 120" fill="none" xmlns="http://www.w3.org/2000/svg">
    <path d="M51.767 0 30.56 12.275l-6.571 3.802-6.154 3.487h-.208L0 29.991v60.053L51.767 120l27.813-16.077 6.189-3.487h.209l17.591-10.218V30.096L51.767 0zm30.56 77.768L64.7 87.951h-.208l-12.76 7.359-30.524-17.542V42.267l17.626-10.218h.174l6.188-3.488 6.571-4.15 30.56 17.681v35.676z" fill="#A176D9"/>
    <path d="M34.767 42.23v35.432h33.967L51.733 59.946l17-17.716H34.768z" fill="#A176D9"/>
    <path d="m51.767 24.553-12.76 7.358-21.172-12.275 12.724-7.359 21.208 12.276z" fill="#000" style="mix-blend-mode:overlay" opacity=".3"/>
    <path d="m51.768 24.553-6.571 3.801L23.989 16.08l6.571-3.802 21.208 12.276zM85.7 100.365l-12.76 7.359-4.832-2.79-4.868-2.825-11.472-6.66 12.724-7.36L85.7 100.366z" fill="#000" style="mix-blend-mode:overlay" opacity=".3"/>
    <path d="m79.511 103.924-6.57 3.801-21.173-12.24 6.57-3.801 21.173 12.24zM51.594 59.773l-16.827 17.89h33.967l-17.14-17.89z" fill="#000" style="mix-blend-mode:overlay" opacity=".3"/>
    <path d="M146.02 31.805h-10.708v56.983h10.708V31.805z" fill="#fff"/>
    <path d="m159.023 55.17-7.684-6.975 16.932-16.39h15.366v.348L159.023 55.17z" fill="#A176D9"/>
    <path d="M186.765 88.822h-15.992l-31.499-28.98 5.945-8.858 9.248 8.44 32.298 29.398zM216.004 30.688c-19.643 0-29.238 15.065-29.238 30.026 0 14.96 9.248 29.398 29.238 29.398 19.991 0 28.961-14.751 29.135-29.468.173-14.717-9.596-29.956-29.135-29.956zm0 49.555c-13.385 0-18.426-10.009-18.669-19.355-.244-9.346 5.284-20.436 18.669-20.436 13.385 0 18.739 10.741 18.6 20.331-.139 9.59-5.145 19.425-18.6 19.425v.035zM277.124 53.95c-6.954-.802-12.69-2.197-12.69-7.15 0-4.22 3.824-7.567 11.786-7.567a16.263 16.263 0 0 1 7.49 1.546 16.306 16.306 0 0 1 5.964 4.801l8.553-4.394c-4.311-8.788-13.489-11.334-22.32-11.334-10.43 0-22.007 4.882-22.007 16.635 0 12.764 10.708 15.867 22.32 17.436 7.544.803 13.142 3 13.142 8.37 0 6.173-6.328 8.544-13.073 8.544-6.744 0-13.454-2.755-15.992-9.032l-8.901 4.638c4.207 10.462 13.142 13.95 24.754 13.95 12.655 0 23.85-5.476 23.85-18.17 0-13.705-11.056-16.809-22.876-18.273z" fill="#fff"/>
</svg>
